PathFileType	4	(X/Y/Z)	RBDS019\RBDS019runT35.trc
DataRate	CameraRate	NumFrames	NumMarkers	Units	OrigDataRate	OrigDataStartFrame	OrigNumFrames
150.000000	150.000000	4	33	mm	150.000000	0	4500
Frame#	Time	L.ASIS			L.Heel.Bottom			L.Heel.Lateral			L.Heel.Top			L.Iliac.Crest			L.MT1			L.MT5			L.PSIS			L.Shank.Bottom.Lateral			L.Shank.Bottom.Medial			L.Shank.Top.Lateral			L.Shank.Top.Medial			L.Thigh.Bottom.Lateral			L.Thigh.Bottom.Medial			L.Thigh.Top.Lateral			L.Thigh.Top.Medial			R.ASIS			R.ASY			R.Heel.Bottom			R.Heel.Lateral			R.Heel.Top			R.Iliac.Crest			R.MT1			R.MT5			R.PSIS			R.Shank.Bottom.Lateral			R.Shank.Bottom.Medial			R.Shank.Top.Lateral			R.Shank.Top.Medial			R.Thigh.Bottom.Lateral			R.Thigh.Bottom.Medial			R.Thigh.Top.Lateral			R.Thigh.Top.Medial			
		X1	Y1	Z1	X2	Y2	Z2	X3	Y3	Z3	X4	Y4	Z4	X5	Y5	Z5	X6	Y6	Z6	X7	Y7	Z7	X8	Y8	Z8	X9	Y9	Z9	X10	Y10	Z10	X11	Y11	Z11	X12	Y12	Z12	X13	Y13	Z13	X14	Y14	Z14	X15	Y15	Z15	X16	Y16	Z16	X17	Y17	Z17	X18	Y18	Z18	X19	Y19	Z19	X20	Y20	Z20	X21	Y21	Z21	X22	Y22	Z22	X23	Y23	Z23	X24	Y24	Z24	X25	Y25	Z25	X26	Y26	Z26	X27	Y27	Z27	X28	Y28	Z28	X29	Y29	Z29	X30	Y30	Z30	X31	Y31	Z31	X32	Y32	Z32	X33	Y33	Z33	

1	0	2312.387787456037	987.9118093535028	953.7187792282984	2427.822528193408	52.73287479331812	999.8185332758445	2452.891470038948	79.03804296393284	957.3002331917266	2420.323319803992	100.3017081433555	997.7180735506724	2259.226792584616	1049.780789398859	902.7913189822259	2613.320448074511	134.6925103223658	1046.886566954547	2594.913807568726	113.1539936405206	942.0138532059904	2155.943042345926	1028.235868214288	1002.993824036225	2460.883282896522	214.7809106841382	941.9789858341886	2419.407318140855	207.3015147974957	971.1565917291537	2436.61107079659	289.4461838482608	921.8108567669921	2394.54546294382	286.640184743734	954.4446258440516	2384.120230149423	636.3717525748967	898.8893170250528	2320.091544951508	607.7509910566972	920.2655611985234	2334.516701430831	732.5170067496202	880.2201440120585	2273.05242958813	704.9890672498188	899.6978899802455	2315.160814268536	961.4635483959996	1169.839818101884	1744.922549374764	256.7325086734036	1063.529006153917	1648.090376182925	411.0337697256036	1058.514791765365	1661.917265045613	383.6204668642842	1098.736187829593	1692.565017108095	412.0455625336238	1064.881684114262	2283.479669943959	1040.156409143844	1184.340428345864	1726.608858967668	230.6624656686961	1012.603014793845	1684.707700750663	239.1006656942063	1111.473370799318	2162.263565748027	1032.21165159847	1105.744704156694	1779.37461129515	387.4301998632304	1125.049082793987	1766.182148786289	427.4673396382624	1088.205776364088	1843.575784179644	434.2947162143162	1147.111635362691	1829.902728139863	470.9205933692486	1110.093320630004	2116.386024951788	615.7500154711139	1185.938799501047	2066.171696488314	639.8208870922712	1141.208092753711	2146.95595497347	719.459767448395	1208.54639084966	2096.391767446455	742.453472134389	1168.092015089575	
2	0.006666666666666667	2311.880714367495	986.1946566860364	953.4356125384811	2429.414734449833	46.66669221090365	999.6061854731956	2454.442019152462	72.9987786548229	957.0733083937265	2421.037486986782	94.12995802626793	996.9075689150151	2258.429731933545	1047.758606949913	902.6824915742401	2613.269226151312	132.3515036824392	1047.120750451188	2595.952043645593	109.3579998484316	942.4568000662906	2155.548734037711	1024.821452624616	1003.210798194957	2459.005717253493	210.1484266152243	941.3059757128103	2418.034699208953	202.076543444254	971.0444499041697	2433.519207236389	284.6196337732802	921.4958482435952	2392.064143673358	281.2635744350128	954.8563700169876	2378.218865180496	630.7499785047402	898.7120095786595	2314.183119626096	603.3904911221659	921.3586908375019	2330.071591096156	727.522943327998	880.1830793204809	2268.543254821475	701.2255609224079	900.8827176118064	2316.419651568161	960.3099990118518	1169.546836074227	1741.645662937316	272.6006491179336	1064.506168932557	1654.001175424379	431.092711501451	1054.479354353397	1666.02248390775	404.2819697523456	1095.606666552839	1698.247997608947	430.1531604477193	1061.548154803974	2282.530800644752	1038.73485295547	1184.273855704339	1722.043209149395	246.5248043733961	1013.937685997229	1680.529403044963	259.8940240792489	1112.008995172264	2162.489241184266	1029.485778788969	1105.823060241768	1782.913104198457	401.3397969387765	1123.234041310944	1771.883757949969	441.042066868503	1085.79834517393	1849.115500923279	444.6945087701133	1145.046727470317	1837.728601562339	481.0333610314366	1107.227500283627	2122.886073509049	611.0056280677111	1186.092183982617	2072.734845059846	634.38015587742	1141.022270670471	2151.755239234582	715.185542436467	1208.691919936434	2100.946830432737	737.3798214304991	1168.090303748705	
3	0.01333333333333333	2311.348058953308	984.3137320492996	953.0759476632129	2429.895927615487	40.81224392171671	999.3982502968565	2454.926429121884	67.12315382372915	956.8526520979068	2420.842076653028	88.18516089807471	996.1863491375917	2257.551154255963	1045.616447797647	902.5536575080067	2612.428596454112	129.3939083740971	1047.296083556321	2596.017557705862	105.1853509964756	942.814828491385	2155.117021044019	1021.227208470108	1003.435838782517	2456.554401568973	205.37224190316	940.7064213939497	2416.058602075165	196.8134641366762	970.9836682060389	2430.05548385608	279.7002958464171	921.2407078993014	2389.175127567428	275.9018568382428	955.288893931748	2372.466335469214	625.1529001627968	898.5836994215327	2308.422217993089	598.9999588950599	922.4429155765292	2325.705239245812	722.5199576307053	880.1676196782931	2264.11879128118	697.4069526827249	902.0504399931386	2317.639880072987	958.9939339357712	1169.223956844246	1738.931464451176	288.3381561872229	1065.530003685988	1660.384437750108	450.8441864499684	1050.59883206904	1670.660940101431	424.6476308337466	1092.601894250758	1704.384954723613	447.9680730998009	1058.333509114095	2281.632099446727	1037.120702071288	1184.223550948079	1718.012725216569	262.2536426833834	1015.351854395401	1677.028491423585	280.4924274507782	1112.645343099512	2162.692995813034	1026.591074464204	1105.928254177635	1786.914102642105	415.0033895040694	1121.501868301252	1778.023754364635	454.377650075978	1083.511763527649	1855.075878161197	454.8207695629435	1143.068621904227	1845.94130328616	490.8761472280421	1104.478760107856	2129.471798421139	606.0684212172072	1186.227270593377	2079.383733716236	628.6978133499703	1140.792244874951	2156.580810981942	710.7112183230063	1208.801171892936	2105.554008090828	732.0801080409379	1168.024683156937	
4	0.02	2310.756392396571	982.101089642578	952.559380307868	2428.283255044335	35.37591196724628	999.1991897759426	2453.402583807325	61.57278748733219	956.6441589591839	2418.931669932369	82.68577845983917	995.6319970554946	2256.528232751271	1043.178644312533	902.3903633369214	2610.091890143085	125.3001696714269	1047.3640003087	2594.248284493563	100.3252150183177	943.0148006299872	2154.601756800553	1017.264238371869	1003.690650859934	2453.036115182451	200.3483887159774	940.2389381907149	2412.958823979671	191.5066414229764	971.0132272692422	2425.914143450631	274.6299832124858	921.0895373987754	2385.541075450506	270.5953720867772	955.751439343264	2367.031101121421	619.6040774312729	898.5304946498146	2302.988921077706	594.5479492282753	923.5094923726407	2321.504625161121	717.4944267350938	880.1810481237976	2259.882337622196	693.469876495409	903.1848912171448	2318.785131077935	957.3360018396819	1168.835168997527	1737.298682780148	303.8443148972896	1066.644128356621	1667.702829512931	470.0354913813073	1047.023995726217	1676.347929571433	444.4680100841038	1089.845633850679	1711.419319762382	465.2423222477032	1055.352326073224	2280.865904925314	1035.108205954947	1184.204910121351	1715.008530264408	277.7620400314237	1016.91517042301	1674.829711126499	300.7433105332327	1113.479992767075	2162.846155627969	1023.336168958945	1106.100204426873	1791.815727123523	428.2098027140391	1119.934351096177	1785.026122627997	467.2603103703256	1081.450692338544	1861.853139781104	464.4240115951542	1141.255938214625	1854.912436877374	500.1946334785019	1101.949556294072	2136.201085008241	600.7260174250871	1186.326274653085	2086.177470012183	622.5246827798924	1140.479720673218	2161.436445789765	705.825336639846	1208.839224409395	2110.235229056543	726.3212594003829	1167.837148129348	
